# xmcd CD database file
#
# Track frame offsets:
#	150
#	18177
#	39997
#
# Disc length: 772 seconds
#
# Revision: 0
# Processed by: cddbd v1.5.1PL0 Copyright (c) Steve Scherf et al.
# Submitted via: CDex 1.51
#
DISCID=15030203
DTITLE=ソニン - ジグソーパズル
DYEAR=2004
DGENRE=JPop
TTITLE0=ジグソーパズル
TTITLE1=I LOVE YOU
TTITLE2=ジグソーパズル (Instrumental)
EXTD=YEAR: 2004
EXTT0=
EXTT1=
EXTT2=
PLAYORDER=
